<svg width="135" height="60" viewBox="0 0 135 60" fill="none" xmlns="http://www.w3.org/2000/svg">
<path d="M46.9047 33.9053C47.3341 33.9053 47.6421 33.9987 47.8287 34.1853C48.0341 34.372 48.1367 34.6147 48.1367 34.9133C48.1367 35.3987 47.9874 35.828 47.6887 36.2013C47.4087 36.5747 46.9607 36.7707 46.3447 36.7893C44.8701 36.808 43.5447 36.696 42.3687 36.4533C41.0621 39.2347 39.4847 41.5493 37.6367 43.3973C35.8074 45.2267 33.9967 46.1413 32.2047 46.1413C30.5621 46.1413 29.3301 45.2733 28.5087 43.5373C27.6874 41.7827 27.2207 39.44 27.1087 36.5093C25.9887 39.7573 24.7194 42.1747 23.3007 43.7613C21.9007 45.348 20.4074 46.1413 18.8207 46.1413C17.0287 46.1413 15.6754 45.0307 14.7607 42.8093C13.8461 40.5693 13.3887 37.564 13.3887 33.7933C13.3887 31.0493 13.6314 28.0347 14.1167 24.7493C14.2474 23.816 14.4807 23.172 14.8167 22.8173C15.1714 22.444 15.7221 22.2573 16.4687 22.2573C17.0287 22.2573 17.4581 22.3787 17.7567 22.6213C18.0741 22.864 18.2327 23.312 18.2327 23.9653C18.2327 24.096 18.2141 24.348 18.1767 24.7213C17.6167 28.548 17.3367 31.8053 17.3367 34.4933C17.3367 36.9947 17.5514 38.9267 17.9807 40.2893C18.4101 41.652 18.9887 42.3333 19.7167 42.3333C20.3701 42.3333 21.1541 41.652 22.0687 40.2893C23.0021 38.908 23.9261 36.8733 24.8407 34.1853C25.7554 31.4787 26.5301 28.2587 27.1647 24.5253C27.3141 23.6667 27.5847 23.0787 27.9767 22.7613C28.3874 22.4253 28.9381 22.2573 29.6287 22.2573C30.2074 22.2573 30.6274 22.388 30.8887 22.6493C31.1687 22.892 31.3087 23.2653 31.3087 23.7693C31.3087 24.068 31.2901 24.3013 31.2527 24.4693C30.7301 27.512 30.4687 30.5547 30.4687 33.5973C30.4687 35.6693 30.5341 37.3213 30.6647 38.5533C30.8141 39.7853 31.0847 40.728 31.4767 41.3813C31.8874 42.016 32.4754 42.3333 33.2407 42.3333C34.1367 42.3333 35.1354 41.6613 36.2367 40.3173C37.3381 38.9547 38.3461 37.2653 39.2607 35.2493C38.1221 34.54 37.2634 33.6253 36.6847 32.5053C36.1061 31.3667 35.8167 30.06 35.8167 28.5853C35.8167 27.1107 36.0407 25.8693 36.4887 24.8613C36.9554 23.8347 37.5807 23.0693 38.3647 22.5653C39.1674 22.0613 40.0541 21.8093 41.0247 21.8093C42.2194 21.8093 43.1621 22.2387 43.8527 23.0973C44.5621 23.956 44.9167 25.132 44.9167 26.6253C44.9167 28.7347 44.4594 31.0773 43.5447 33.6533C44.4967 33.8213 45.6167 33.9053 46.9047 33.9053ZM38.6447 28.3893C38.6447 30.2187 39.2327 31.572 40.4087 32.4493C41.1367 30.3587 41.5007 28.632 41.5007 27.2693C41.5007 26.4853 41.3981 25.916 41.1927 25.5613C40.9874 25.188 40.7074 25.0013 40.3527 25.0013C39.8487 25.0013 39.4381 25.3 39.1207 25.8973C38.8034 26.476 38.6447 27.3067 38.6447 28.3893ZM47.738 46.1413C46.5806 46.1413 45.6566 45.7213 44.966 44.8813C44.2753 44.0413 43.93 42.94 43.93 41.5773C43.93 40.084 44.2753 38.6747 44.966 37.3493C45.6566 36.0053 46.5713 34.932 47.71 34.1293C48.8673 33.308 50.09 32.8973 51.378 32.8973C51.7886 32.8973 52.0593 32.9813 52.19 33.1493C52.3393 33.2987 52.4606 33.5787 52.554 33.9893C52.946 33.9147 53.3566 33.8773 53.786 33.8773C54.7006 33.8773 55.158 34.204 55.158 34.8573C55.158 35.2493 55.018 36.1827 54.738 37.6573C54.3086 39.804 54.094 41.2973 54.094 42.1373C54.094 42.4173 54.1593 42.6413 54.29 42.8093C54.4393 42.9773 54.626 43.0613 54.85 43.0613C55.2046 43.0613 55.634 42.8373 56.138 42.3893C56.642 41.9227 57.3233 41.176 58.182 40.1493C58.406 39.888 58.658 39.7573 58.938 39.7573C59.1806 39.7573 59.3673 39.8693 59.498 40.0933C59.6473 40.3173 59.722 40.6253 59.722 41.0173C59.722 41.764 59.5446 42.3427 59.19 42.7533C58.4246 43.7053 57.6126 44.508 56.754 45.1613C55.8953 45.8147 55.0646 46.1413 54.262 46.1413C53.646 46.1413 53.0766 45.936 52.554 45.5253C52.05 45.096 51.6673 44.5173 51.406 43.7893C50.4353 45.3573 49.2126 46.1413 47.738 46.1413ZM48.746 43.3133C49.1566 43.3133 49.5486 43.0707 49.922 42.5853C50.2953 42.1 50.566 41.456 50.734 40.6533L51.77 35.5013C50.986 35.52 50.258 35.8187 49.586 36.3973C48.9326 36.9573 48.41 37.704 48.018 38.6373C47.626 39.5707 47.43 40.56 47.43 41.6053C47.43 42.184 47.542 42.6133 47.766 42.8933C48.0086 43.1733 48.3353 43.3133 48.746 43.3133ZM69.9343 39.7573C70.177 39.7573 70.3636 39.8693 70.4943 40.0933C70.6436 40.3173 70.7183 40.6253 70.7183 41.0173C70.7183 41.764 70.541 42.3427 70.1863 42.7533C69.3836 43.7427 68.5063 44.5547 67.5543 45.1893C66.6023 45.824 65.5103 46.1413 64.2783 46.1413C60.4703 46.1413 58.5663 43.4627 58.5663 38.1053C58.5663 37.284 58.5943 36.4533 58.6503 35.6133H57.5583C56.9983 35.6133 56.6156 35.5107 56.4103 35.3053C56.2236 35.1 56.1303 34.7733 56.1303 34.3253C56.1303 33.28 56.5503 32.7573 57.3903 32.7573H58.9863C59.3036 30.704 59.789 28.828 60.4423 27.1293C61.0956 25.4307 61.8796 24.0773 62.7943 23.0693C63.7276 22.0613 64.7263 21.5573 65.7903 21.5573C66.5743 21.5573 67.1903 21.9027 67.6383 22.5933C68.0863 23.284 68.3103 24.152 68.3103 25.1973C68.3103 28.0907 67.097 30.6107 64.6703 32.7573H67.8063C68.105 32.7573 68.3196 32.8227 68.4503 32.9533C68.581 33.084 68.6463 33.3267 68.6463 33.6813C68.6463 34.9693 67.5916 35.6133 65.4823 35.6133H62.0663C62.029 36.5467 62.0103 37.2747 62.0103 37.7973C62.0103 39.7387 62.2343 41.1013 62.6823 41.8853C63.149 42.6693 63.877 43.0613 64.8663 43.0613C65.669 43.0613 66.3783 42.8187 66.9943 42.3333C67.6103 41.848 68.3383 41.12 69.1783 40.1493C69.4023 39.888 69.6543 39.7573 69.9343 39.7573ZM65.0343 24.2453C64.7543 24.2453 64.437 24.6 64.0823 25.3093C63.7463 26 63.4196 26.9707 63.1023 28.2213C62.8036 29.4533 62.5516 30.8253 62.3463 32.3373C63.4476 31.3853 64.269 30.3213 64.8103 29.1453C65.3703 27.9507 65.6503 26.868 65.6503 25.8973C65.6503 24.796 65.445 24.2453 65.0343 24.2453ZM73.7865 46.1413C71.9571 46.1413 70.5291 45.628 69.5025 44.6013C68.4945 43.556 67.9905 42.184 67.9905 40.4853C67.9905 38.9733 68.2891 37.648 68.8865 36.5093C69.4838 35.3707 70.2585 34.4933 71.2105 33.8773C72.1625 33.2613 73.1611 32.9533 74.2065 32.9533C75.2331 32.9533 76.0265 33.2613 76.5865 33.8773C77.1651 34.4747 77.4545 35.2493 77.4545 36.2013C77.4545 36.9853 77.2771 37.648 76.9225 38.1893C76.5865 38.7307 76.1385 39.0013 75.5785 39.0013C75.2238 39.0013 74.9345 38.9173 74.7105 38.7493C74.5051 38.5813 74.4025 38.348 74.4025 38.0493C74.4025 37.9187 74.4211 37.7693 74.4585 37.6013C74.4958 37.4333 74.5238 37.312 74.5425 37.2373C74.6358 36.9573 74.6825 36.696 74.6825 36.4533C74.6825 36.2107 74.6171 36.024 74.4865 35.8933C74.3745 35.7627 74.2065 35.6973 73.9825 35.6973C73.5531 35.6973 73.1518 35.8933 72.7785 36.2853C72.4051 36.6587 72.1065 37.172 71.8825 37.8253C71.6585 38.4787 71.5465 39.1973 71.5465 39.9813C71.5465 42.1467 72.4891 43.2293 74.3745 43.2293C75.1398 43.2293 75.9611 42.9773 76.8385 42.4733C77.7345 41.9507 78.6118 41.176 79.4705 40.1493C79.6945 39.888 79.9465 39.7573 80.2265 39.7573C80.4691 39.7573 80.6558 39.8693 80.7865 40.0933C80.9358 40.3173 81.0105 40.6253 81.0105 41.0173C81.0105 41.7267 80.8331 42.3053 80.4785 42.7533C79.6011 43.836 78.5465 44.676 77.3145 45.2733C76.1011 45.852 74.9251 46.1413 73.7865 46.1413ZM94.2871 39.7573C94.5297 39.7573 94.7164 39.8693 94.8471 40.0933C94.9964 40.3173 95.0711 40.6253 95.0711 41.0173C95.0711 41.764 94.8937 42.3427 94.5391 42.7533C93.6804 43.7427 92.7937 44.5547 91.8791 45.1893C90.9831 45.824 89.9564 46.1413 88.7991 46.1413C87.8471 46.1413 87.1284 45.8707 86.6431 45.3293C86.1577 44.7693 85.9151 43.9667 85.9151 42.9213C85.9151 42.3987 86.0457 41.4653 86.3071 40.1213C86.5497 38.9453 86.6711 38.1333 86.6711 37.6853C86.6711 37.3867 86.5684 37.2373 86.3631 37.2373C86.1204 37.2373 85.7751 37.5547 85.3271 38.1893C84.8791 38.8053 84.4311 39.6267 83.9831 40.6533C83.5351 41.68 83.1711 42.7627 82.8911 43.9013C82.5364 45.3947 81.6591 46.1413 80.2591 46.1413C79.6991 46.1413 79.3257 45.9453 79.1391 45.5533C78.9711 45.1427 78.8871 44.4147 78.8871 43.3693C78.8871 42.772 78.8964 42.296 78.9151 41.9413L78.9431 39.7013C78.9431 36.8267 79.2324 33.8307 79.8111 30.7133C80.4084 27.596 81.2764 24.9827 82.4151 22.8733C83.5724 20.7453 84.9537 19.6813 86.5591 19.6813C87.4177 19.6813 88.1084 20.0547 88.6311 20.8013C89.1724 21.5293 89.4431 22.4813 89.4431 23.6573C89.4431 25.5427 88.8924 27.5027 87.7911 29.5373C86.6897 31.5533 84.8977 33.9147 82.4151 36.6213C82.3591 37.592 82.3311 38.5907 82.3311 39.6173C82.9471 38.0307 83.6284 36.7427 84.3751 35.7533C85.1404 34.7453 85.8871 34.0267 86.6151 33.5973C87.3617 33.168 88.0431 32.9533 88.6591 32.9533C89.8724 32.9533 90.4791 33.56 90.4791 34.7733C90.4791 35.5013 90.2737 36.8173 89.8631 38.7213C89.5084 40.3453 89.3311 41.4187 89.3311 41.9413C89.3311 42.688 89.6017 43.0613 90.1431 43.0613C90.5164 43.0613 90.9551 42.8373 91.4591 42.3893C91.9817 41.9227 92.6724 41.176 93.5311 40.1493C93.7551 39.888 94.0071 39.7573 94.2871 39.7573ZM85.9711 22.4533C85.6351 22.4533 85.2617 22.9387 84.8511 23.9093C84.4404 24.8613 84.0391 26.1587 83.6471 27.8013C83.2737 29.4253 82.9657 31.1987 82.7231 33.1213C83.8804 31.7587 84.8324 30.2747 85.5791 28.6693C86.3444 27.064 86.7271 25.608 86.7271 24.3013C86.7271 23.704 86.6617 23.2467 86.5311 22.9293C86.4004 22.612 86.2137 22.4533 85.9711 22.4533ZM113.276 39.7573C113.519 39.7573 113.706 39.8693 113.836 40.0933C113.986 40.3173 114.06 40.6253 114.06 41.0173C114.06 41.764 113.883 42.3427 113.528 42.7533C112.726 43.7427 111.848 44.5547 110.896 45.1893C109.963 45.824 108.899 46.1413 107.704 46.1413C106.435 46.1413 105.418 45.684 104.652 44.7693C103.887 43.836 103.364 42.576 103.084 40.9893C102.45 41.1573 101.778 41.2413 101.068 41.2413C100.452 41.2413 99.771 41.1947 99.0243 41.1013C99.2857 42.2773 99.5003 43.5933 99.6683 45.0493C99.8363 46.5053 99.9203 47.7 99.9203 48.6333C99.9203 50.6493 99.5937 52.1893 98.9403 53.2533C98.287 54.3173 97.4283 54.8493 96.3643 54.8493C95.0203 54.8493 94.059 53.8973 93.4803 51.9933C92.9203 50.0893 92.6403 47.2147 92.6403 43.3693C92.6403 39.7853 93.023 36.1547 93.7883 32.4773C94.5723 28.7813 95.6363 25.7293 96.9803 23.3213C98.343 20.8947 99.8363 19.6813 101.46 19.6813C102.338 19.6813 103.019 20.0733 103.504 20.8573C104.008 21.6413 104.26 22.696 104.26 24.0213C104.26 28.408 101.638 33.1867 96.3923 38.3573C96.2057 40.1867 96.1123 41.792 96.1123 43.1733C96.1123 45.096 96.1777 47.0653 96.3083 49.0813C96.439 51.116 96.6537 52.1333 96.9523 52.1333C97.5123 52.1333 97.7923 51.1627 97.7923 49.2213C97.7923 47.7653 97.6897 46.356 97.4843 44.9933C97.2977 43.6307 97.0363 42.1933 96.7003 40.6813C96.6817 40.4387 96.7563 40.1307 96.9243 39.7573C97.111 39.384 97.335 39.0573 97.5963 38.7773C97.8577 38.4973 98.091 38.3573 98.2963 38.3573C98.539 38.3573 98.9217 38.376 99.4443 38.4133C100.042 38.4507 100.49 38.4693 100.788 38.4693C101.46 38.4693 102.151 38.376 102.86 38.1893V38.1053C102.86 35.828 103.15 33.2333 103.728 30.3213C104.326 27.4093 105.194 24.908 106.332 22.8173C107.49 20.7267 108.862 19.6813 110.448 19.6813C111.344 19.6813 112.044 20.1013 112.548 20.9413C113.071 21.7627 113.332 22.948 113.332 24.4973C113.332 26.0093 113.052 27.7267 112.492 29.6493C111.932 31.572 111.12 33.42 110.056 35.1933C108.992 36.948 107.742 38.3573 106.304 39.4213C106.379 40.7467 106.575 41.6893 106.892 42.2493C107.21 42.7907 107.676 43.0613 108.292 43.0613C109.058 43.0613 109.73 42.8467 110.308 42.4173C110.887 41.9693 111.624 41.2133 112.52 40.1493C112.744 39.888 112.996 39.7573 113.276 39.7573ZM100.872 22.4533C100.536 22.4533 100.116 23.0227 99.6123 24.1613C99.127 25.3 98.6417 26.812 98.1563 28.6973C97.671 30.564 97.251 32.5427 96.8963 34.6333C98.3897 32.9347 99.5377 31.1707 100.34 29.3413C101.143 27.4933 101.554 25.7667 101.572 24.1613C101.572 23.0227 101.339 22.4533 100.872 22.4533ZM109.832 22.4533C109.44 22.4533 108.983 23.1533 108.46 24.5533C107.956 25.9347 107.499 27.6893 107.088 29.8173C106.678 31.9453 106.426 34.0267 106.332 36.0613C107.266 35.1093 108.059 33.952 108.712 32.5893C109.366 31.208 109.842 29.8173 110.14 28.4173C110.458 26.9987 110.616 25.72 110.616 24.5813C110.616 23.1627 110.355 22.4533 109.832 22.4533ZM115.474 31.1053C114.69 31.1053 114.102 30.928 113.71 30.5733C113.318 30.2 113.122 29.6867 113.122 29.0333C113.122 28.38 113.374 27.8387 113.878 27.4093C114.4 26.9613 115.044 26.7373 115.81 26.7373C116.5 26.7373 117.06 26.9053 117.49 27.2413C117.919 27.5773 118.134 28.0533 118.134 28.6693C118.134 29.416 117.891 30.0133 117.406 30.4613C116.92 30.8907 116.276 31.1053 115.474 31.1053ZM115.25 46.1413C114.036 46.1413 113.15 45.712 112.59 44.8533C112.048 43.9947 111.778 42.856 111.778 41.4373C111.778 40.5973 111.88 39.524 112.086 38.2173C112.31 36.892 112.59 35.66 112.926 34.5213C113.094 33.924 113.318 33.5133 113.598 33.2893C113.878 33.0653 114.326 32.9533 114.942 32.9533C115.894 32.9533 116.37 33.2707 116.37 33.9053C116.37 34.372 116.192 35.4547 115.838 37.1533C115.39 39.2067 115.166 40.5973 115.166 41.3253C115.166 41.8853 115.24 42.3147 115.39 42.6133C115.539 42.912 115.791 43.0613 116.146 43.0613C116.482 43.0613 116.902 42.828 117.406 42.3613C117.91 41.8947 118.582 41.1573 119.422 40.1493C119.646 39.888 119.898 39.7573 120.178 39.7573C120.42 39.7573 120.607 39.8693 120.738 40.0933C120.887 40.3173 120.962 40.6253 120.962 41.0173C120.962 41.764 120.784 42.3427 120.43 42.7533C118.582 45.012 116.855 46.1413 115.25 46.1413ZM133.34 40.5973C133.583 40.5973 133.77 40.7093 133.9 40.9333C134.05 41.1573 134.124 41.4653 134.124 41.8573C134.124 42.5293 133.966 43.108 133.648 43.5933C132.547 45.292 130.979 46.1413 128.944 46.1413C128.067 46.1413 127.283 45.9733 126.592 45.6373C125.92 45.2827 125.37 44.7787 124.94 44.1253C123.858 45.4507 122.598 46.1133 121.16 46.1133C120.134 46.1133 119.322 45.8147 118.724 45.2173C118.127 44.62 117.828 43.8267 117.828 42.8373C117.828 41.904 118.043 41.148 118.472 40.5693C118.902 39.9907 119.508 39.7013 120.292 39.7013C120.964 39.7013 121.3 39.9533 121.3 40.4573C121.3 40.6067 121.282 40.868 121.244 41.2413L121.16 42.3053C121.16 42.8653 121.403 43.1453 121.888 43.1453C122.243 43.1453 122.579 42.94 122.896 42.5293C123.232 42.1 123.503 41.5213 123.708 40.7933C123.932 40.0653 124.044 39.2627 124.044 38.3853C124.044 37.7133 123.96 37.1533 123.792 36.7053C123.624 36.2387 123.419 36.0053 123.176 36.0053C122.971 36.0053 122.822 36.0613 122.728 36.1733C122.635 36.2667 122.542 36.4347 122.448 36.6773C122.336 36.976 122.187 37.2187 122 37.4053C121.814 37.5733 121.487 37.6573 121.02 37.6573C120.61 37.6573 120.283 37.5173 120.04 37.2373C119.798 36.9387 119.676 36.4907 119.676 35.8933C119.676 34.9413 119.966 34.1947 120.544 33.6533C121.123 33.112 121.87 32.8413 122.784 32.8413C123.568 32.8413 124.278 33.0373 124.912 33.4293C125.547 33.8027 126.032 34.3533 126.368 35.0813C126.928 34.3347 127.554 33.7747 128.244 33.4013C128.954 33.028 129.644 32.8413 130.316 32.8413C131.044 32.8413 131.595 33.0093 131.968 33.3453C132.36 33.6813 132.556 34.2227 132.556 34.9693C132.556 35.8093 132.398 36.472 132.08 36.9573C131.763 37.424 131.38 37.6573 130.932 37.6573C130.522 37.6573 130.242 37.5733 130.092 37.4053C129.943 37.2373 129.831 36.9947 129.756 36.6773C129.719 36.4533 129.663 36.2853 129.588 36.1733C129.514 36.0613 129.383 36.0053 129.196 36.0053C128.972 36.0053 128.73 36.22 128.468 36.6493C128.226 37.06 128.011 37.6107 127.824 38.3013C127.656 38.992 127.572 39.7107 127.572 40.4573C127.572 41.2973 127.759 41.9693 128.132 42.4733C128.524 42.9773 128.991 43.2293 129.532 43.2293C130.559 43.2293 131.576 42.492 132.584 41.0173C132.771 40.7373 133.023 40.5973 133.34 40.5973Z" fill="white"/>
<g clip-path="url(#clip0_412_63307)">
<path d="M10.7457 20.6992C10.7457 20.6992 11.5474 13.2862 11.7635 12.8121C11.8685 12.5817 12.0979 11.3583 12.602 10.8995C13.2548 10.3052 14.4868 10.1073 15.3619 10.0148L19.922 9.53574C20.0904 9.51805 20.26 9.54418 20.414 9.61158C20.568 9.67897 20.7011 9.78533 20.8004 9.9202V9.9202C20.846 9.98198 20.8707 10.0567 20.8712 10.1339C20.8717 10.211 20.8479 10.2868 20.8032 10.3505L19.7393 11.8647C19.5805 12.0908 19.4971 12.3601 19.5013 12.6339C19.5054 12.9078 19.5967 13.172 19.7622 13.3885L23.0751 17.7236" fill="#E20613"/>
<path d="M24.8702 17.8163C24.7306 17.6269 24.54 17.4809 24.3199 17.395C24.0998 17.309 23.859 17.2864 23.6248 17.3298C23.3905 17.3732 23.1722 17.4808 22.9945 17.6405C22.8169 17.8001 22.6869 18.0055 22.6194 18.2332C22.4841 17.9243 22.253 17.6677 21.9595 17.5006C21.6659 17.3335 21.3251 17.2645 20.9866 17.3036C20.648 17.3428 20.3291 17.4881 20.0761 17.7184C19.8232 17.9487 19.6493 18.2521 19.5796 18.5847C19.5494 18.3449 19.459 18.1174 19.3166 17.9232C18.7573 17.1642 17.5355 17.1151 16.5877 17.8136C16.0654 18.1985 15.7348 18.7311 15.6377 19.2585C15.0388 18.6281 13.9078 18.6245 13.0184 19.28C12.4743 19.681 12.1388 20.2413 12.0576 20.7895C11.8195 20.6116 11.5282 20.5169 11.2284 20.5201C10.9285 20.5232 10.6365 20.6239 10.3968 20.8068C10.1572 20.9898 9.98306 21.2448 9.90109 21.5331C9.81912 21.8215 9.83378 22.1272 9.94282 22.4036C9.52602 22.5844 9.19486 22.9199 9.02069 23.3379C8.84652 23.7559 8.84328 24.2228 9.01168 24.6382C9.18008 25.0535 9.50663 25.3839 9.92097 25.5583C10.3353 25.7327 10.8043 25.737 11.2268 25.5704C11.5093 25.8116 11.8431 25.9865 12.2039 26.0826C12.5648 26.1786 12.9437 26.1933 13.3134 26.1257C13.683 26.0581 14.0342 25.9098 14.3415 25.6915C14.6488 25.4733 14.9046 25.1905 15.0904 24.8636C15.4311 25.151 15.8441 25.3415 16.2866 25.4157C16.7291 25.4898 17.1852 25.4449 17.6079 25.2855C18.0305 25.1261 18.4046 24.858 18.6913 24.5089C18.9781 24.1597 19.1673 23.7421 19.2394 23.2991C19.531 23.5519 19.8876 23.7196 20.2708 23.7841C20.6539 23.8486 21.049 23.8074 21.4134 23.665C21.7777 23.5226 22.0975 23.2844 22.3383 22.976C22.579 22.6677 22.7315 22.3009 22.7793 21.9154C23.1001 22.1554 23.5044 22.2594 23.9056 22.205C24.3068 22.1506 24.673 21.9423 24.9256 21.6246C25.1783 21.307 25.2973 20.9052 25.2572 20.5055C25.2171 20.1058 25.0211 19.7399 24.7112 19.4862C24.937 19.2719 25.0778 18.984 25.107 18.6765C25.1363 18.3691 25.0521 18.0633 24.8702 17.8163V17.8163Z" fill="#F6F6F6"/>
<path d="M23.6804 7.61573C23.5308 7.41238 23.3212 7.26072 23.0801 7.18135C22.8391 7.10198 22.5782 7.09873 22.333 7.17206C22.0878 7.24538 21.8701 7.39172 21.7095 7.59121C21.5488 7.79071 21.453 8.03369 21.435 8.28717C21.2692 8.25484 21.0964 8.28437 20.9493 8.37017C20.8021 8.45596 20.6909 8.59206 20.6368 8.75265C20.5826 8.91325 20.5892 9.08719 20.6554 9.2415C20.7216 9.3958 20.8426 9.51976 20.9957 9.58986C20.9178 9.80356 20.9088 10.0352 20.97 10.2522C21.0312 10.4693 21.1595 10.6608 21.3368 10.7997C21.5142 10.9387 21.7316 11.0182 21.9586 11.027C22.1856 11.0359 22.4107 10.9736 22.6022 10.8489C22.8581 10.9304 23.1346 10.9285 23.3917 10.8434C23.6488 10.7584 23.8734 10.5946 24.0329 10.3757C24.1925 10.1569 24.2788 9.8942 24.2795 9.62563C24.2801 9.35707 24.195 9.09649 24.0365 8.88149C23.9859 8.81293 23.9285 8.74968 23.8651 8.69269C23.9199 8.50992 23.9317 8.31766 23.8996 8.13087C23.8676 7.94408 23.7926 7.76779 23.6804 7.61573Z" fill="#F3F3F3"/>
<path d="M10.9363 20.2105C10.9587 20.1789 11.1038 19.7582 11.5065 19.7903C11.5065 19.7903 12.6368 17.4333 14.8609 17.9604C14.8609 17.9604 16.8987 15.622 19.4578 16.9929C19.4578 16.9929 21.2757 15.7129 22.5726 17.4314L22.7581 17.6831L22.5713 17.8208L21.1474 17.2269L19.6573 18.087L18.3059 17.3648L16.547 17.8449L15.6774 18.8827L15.269 19.0492L13.7693 18.9288L12.4381 19.8201L12.0573 20.6828L11.0556 20.5994L10.7628 20.3669L10.9363 20.2105Z" fill="#A81A3F"/>
<path d="M14.6769 23.7628C14.6769 23.7628 17.0251 25.9196 19.0674 23.2564C19.0674 23.2564 18.3414 24.8984 17.5353 25.3279C16.7291 25.7575 14.4515 24.579 14.6769 23.7628Z" fill="#DADADA"/>
<path d="M10.73 24.4013C10.73 24.4013 12.7475 25.9202 14.9113 24.6466C14.9113 24.6466 14.9973 25.4424 13.3395 25.962C12.4691 26.2346 10.5044 25.2173 10.73 24.4013Z" fill="#DADADA"/>
<path d="M22.2166 21.1999C22.2166 21.1999 24.6921 22.0338 24.3982 19.4923C24.3982 19.4923 25.4878 20.4815 24.8787 21.4201C24.3805 22.1873 22.9426 22.1853 22.2166 21.1999Z" fill="#DADADA"/>
<path d="M18.5304 22.0136C18.5304 22.0136 19.6806 23.8972 22.5539 21.7645C22.5539 21.7645 22.1949 23.1492 21.3889 23.5789C20.5829 24.0087 18.9105 23.5795 18.5304 22.0136Z" fill="#DADADA"/>
<path d="M24.7495 22.1647C24.4284 22.4028 24.039 22.53 23.6415 22.5267C23.3961 22.5249 23.1543 22.4742 22.9302 22.3777C22.8238 22.7298 22.6383 23.0543 22.388 23.3264C22.1378 23.5985 21.8292 23.811 21.4859 23.9478C21.1426 24.0846 20.7736 24.142 20.4071 24.1156C20.0405 24.0893 19.686 23.9799 19.3707 23.7959C19.1874 24.3577 18.8304 24.8497 18.3513 25.2009C17.8831 25.5458 17.3216 25.7401 16.7433 25.7572C16.165 25.7743 15.5981 25.6134 15.1199 25.2965C14.8444 25.675 14.4797 25.9807 14.0586 26.1863C13.6375 26.3919 13.1732 26.4909 12.7075 26.4744C12.1337 26.4528 11.5828 26.2575 11.1281 25.9144C10.6576 26.0577 10.1532 26.0252 9.71024 25.823C9.26729 25.6208 8.91651 25.2629 8.72422 24.817C8.53193 24.3712 8.51146 23.8682 8.66669 23.4033C8.82191 22.9384 9.14208 22.5437 9.56663 22.2939C9.50132 21.9994 9.51917 21.6914 9.6182 21.4039C9.71723 21.1164 9.89362 20.8605 10.1279 20.6644C10.3623 20.4682 10.6455 20.3394 10.9464 20.2922C11.2473 20.2449 11.5543 20.281 11.8335 20.3965C12.0016 19.8956 12.3454 19.4322 12.8134 19.0873C13.6628 18.4613 14.7175 18.3697 15.4469 18.8108C15.6281 18.3553 15.9546 17.9363 16.3825 17.6209C16.8928 17.2449 17.4933 17.0502 18.0722 17.0739C18.6735 17.098 19.1811 17.3512 19.502 17.7866C19.5226 17.8146 19.5424 17.8432 19.5611 17.8722C19.7267 17.6329 19.945 17.4341 20.1989 17.2912C20.4529 17.1484 20.7357 17.0653 21.0254 17.0485C21.315 17.0317 21.6037 17.0816 21.8689 17.1944C22.1341 17.3072 22.3687 17.4797 22.5544 17.6986C22.7998 17.3677 23.1654 17.1449 23.5714 17.0791C23.9773 17.0132 24.3906 17.1097 24.721 17.3473C25.0513 17.5849 25.2718 17.9444 25.3342 18.3473C25.3967 18.7501 25.2961 19.1635 25.0544 19.4972C25.0898 19.5371 25.1232 19.5785 25.1548 19.6214C25.4386 20.0074 25.5553 20.492 25.4793 20.9688C25.4033 21.4456 25.1408 21.8757 24.7495 22.1647V22.1647ZM22.5741 21.7228C22.5916 21.7098 22.6106 21.6989 22.6306 21.6901C22.676 21.6706 22.7257 21.6632 22.7745 21.6688C22.8234 21.6744 22.8697 21.6927 22.9087 21.722C23.1718 21.9159 23.5019 21.9989 23.829 21.9534C24.1561 21.9079 24.4543 21.7374 24.6602 21.4782C24.8662 21.219 24.9636 20.8916 24.9318 20.5655C24.9 20.2394 24.7415 19.9403 24.49 19.7319C24.4599 19.707 24.4355 19.676 24.4184 19.6408C24.4014 19.6056 24.392 19.5672 24.391 19.5279C24.39 19.4887 24.3974 19.4496 24.4126 19.4131C24.4278 19.3767 24.4505 19.3437 24.4793 19.3165C24.5904 19.2108 24.6759 19.0814 24.7291 18.9383C24.7824 18.7953 24.8021 18.6425 24.7866 18.4916C24.7711 18.3408 24.7208 18.1961 24.6398 18.0687C24.5587 17.9412 24.4489 17.8345 24.319 17.7568C24.1891 17.6791 24.0426 17.6325 23.8907 17.6206C23.7388 17.6087 23.5857 17.6318 23.4433 17.6882C23.3008 17.7445 23.1728 17.8326 23.0692 17.9455C22.9656 18.0585 22.8892 18.1933 22.8458 18.3395C22.8295 18.3945 22.7967 18.4434 22.7518 18.4796C22.7069 18.5158 22.652 18.5375 22.5948 18.5419C22.5375 18.5462 22.4805 18.5328 22.4316 18.5037C22.3827 18.4746 22.3441 18.431 22.3213 18.379C22.2426 18.199 22.1241 18.0396 21.9745 17.9124C21.8249 17.7852 21.6479 17.6935 21.4568 17.6442C21.2657 17.5948 21.0652 17.589 20.8702 17.6271C20.6752 17.6653 20.4907 17.7465 20.3303 17.8646C20.0641 18.0604 19.8794 18.3469 19.8123 18.6681C19.7989 18.7327 19.763 18.7907 19.7109 18.832C19.6589 18.8733 19.5942 18.8951 19.5281 18.8937C19.4621 18.8922 19.3991 18.8674 19.3503 18.8239C19.3014 18.7803 19.2699 18.7207 19.2613 18.6557C19.2373 18.4617 19.1643 18.2777 19.0492 18.1207C18.5817 17.4863 17.5324 17.4617 16.7108 18.0671C16.2655 18.3953 15.9602 18.8585 15.8722 19.335C15.8628 19.3859 15.8394 19.4334 15.8047 19.4722C15.7699 19.511 15.7252 19.5396 15.6754 19.5548C15.6256 19.5699 15.5728 19.5711 15.5228 19.5581C15.4728 19.5451 15.4277 19.5185 15.3924 19.4812C15.1541 19.2308 14.8002 19.0932 14.3943 19.0952C13.9664 19.0979 13.5224 19.2529 13.1422 19.5331C12.6767 19.8762 12.3675 20.3585 12.2938 20.8563C12.2867 20.9043 12.2671 20.9499 12.237 20.9884C12.2069 21.027 12.1674 21.0572 12.1223 21.076C12.0771 21.0949 12.028 21.1018 11.9798 21.096C11.9315 21.0903 11.8858 21.072 11.8471 21.0431C11.6575 20.901 11.4253 20.8254 11.1863 20.8277C10.9472 20.83 10.7143 20.9102 10.5232 21.0561C10.3322 21.2019 10.1934 21.4053 10.1282 21.6352C10.063 21.8651 10.0749 22.1088 10.1621 22.3292C10.1887 22.3964 10.1877 22.4717 10.1593 22.539C10.1309 22.6063 10.0774 22.6602 10.0101 22.6894C9.66107 22.8409 9.38375 23.1219 9.23789 23.472C9.09202 23.8221 9.08928 24.2131 9.23025 24.561C9.37121 24.9089 9.64461 25.1858 9.99157 25.332C10.3385 25.4782 10.7313 25.4821 11.0853 25.3428C11.1328 25.3239 11.1844 25.3182 11.2345 25.3264C11.2847 25.3345 11.3314 25.3562 11.3697 25.389C11.7506 25.7135 12.2317 25.9 12.7361 25.9186C13.1521 25.9333 13.5657 25.8328 13.931 25.6284C14.2963 25.4239 14.599 25.1235 14.8055 24.7604C14.8259 24.7245 14.8541 24.6934 14.8878 24.6693C14.9216 24.6453 14.9602 24.6289 15.0009 24.6213C15.0415 24.6138 15.0832 24.6153 15.123 24.6256C15.1627 24.636 15.1995 24.6551 15.2308 24.6814C15.6119 25.0016 16.0912 25.1848 16.5929 25.202C17.145 25.2202 17.6876 25.0353 18.117 24.6826C18.5464 24.3299 18.8327 23.8341 18.9213 23.2897C18.9293 23.2404 18.9505 23.194 18.9825 23.1552C19.0146 23.1165 19.0564 23.0869 19.1035 23.0695C19.1507 23.0521 19.2014 23.0476 19.2506 23.0564C19.2997 23.0651 19.3454 23.0869 19.3828 23.1194C19.6996 23.3939 20.1025 23.5512 20.5251 23.5654C20.9476 23.5797 21.3645 23.45 21.7069 23.1977C21.9143 23.0464 22.0884 22.8542 22.2182 22.6335C22.3479 22.4127 22.4306 22.1681 22.4608 21.9153C22.4655 21.8774 22.478 21.8408 22.4975 21.8076C22.517 21.7745 22.5431 21.7457 22.5741 21.7228V21.7228Z" fill="#690A3F"/>
<path d="M23.2149 17.8143C23.1555 17.8581 23.0816 17.8771 23.0091 17.8674C22.9365 17.8576 22.8712 17.8197 22.8271 17.762L19.5142 13.4269C19.3124 13.164 19.201 12.8426 19.1962 12.5095C19.1914 12.1764 19.2935 11.849 19.4875 11.5746L20.5514 10.0604C20.5624 10.0448 20.5682 10.0262 20.5682 10.0073C20.5682 9.98833 20.5622 9.96997 20.5511 9.95472C20.4801 9.8588 20.385 9.78317 20.2752 9.73517C20.1654 9.68717 20.0446 9.66843 19.9245 9.68077L15.363 10.1608C14.8861 10.211 13.4342 10.3637 12.7647 10.9731C12.443 11.2657 12.2262 12.0247 12.1097 12.4326C12.0609 12.603 12.0284 12.7161 11.9943 12.7915C11.8425 13.1812 11.3038 17.7825 10.9996 20.5934C10.9966 20.6305 10.9862 20.6667 10.969 20.6999C10.9517 20.7331 10.928 20.7627 10.8992 20.7868C10.8705 20.8109 10.8372 20.8292 10.8014 20.8404C10.7657 20.8516 10.7281 20.8556 10.691 20.8522C10.6538 20.8487 10.6179 20.8379 10.5852 20.8204C10.5526 20.8028 10.5239 20.7789 10.5008 20.7499C10.4778 20.721 10.4609 20.6877 10.4511 20.652C10.4413 20.6162 10.4388 20.5788 10.4438 20.5419C10.4456 20.5233 10.6469 18.665 10.872 16.7731C11.333 12.9039 11.4394 12.6689 11.4855 12.5688C11.5024 12.5317 11.5396 12.4013 11.5728 12.2864C11.7141 11.792 11.951 10.9648 12.3913 10.5638C13.1149 9.90532 14.4048 9.70238 15.3127 9.60662L19.8731 9.12732C20.0896 9.10511 20.3074 9.13889 20.5054 9.22538C20.7033 9.31188 20.8747 9.44815 21.0029 9.62099C21.0828 9.72933 21.1262 9.86034 21.127 9.99564C21.1278 10.1309 21.086 10.2637 21.0075 10.3753L19.9439 11.8894C19.8187 12.0667 19.753 12.2781 19.7562 12.4932C19.7594 12.7082 19.8314 12.9156 19.9618 13.0853L23.2747 17.4205C23.2968 17.4494 23.3129 17.4825 23.322 17.5178C23.3312 17.5531 23.3332 17.59 23.3281 17.6263C23.3229 17.6626 23.3106 17.6976 23.2918 17.7294C23.2731 17.7611 23.2483 17.789 23.2189 17.8114L23.2149 17.8143Z" fill="#690A3F"/>
<path d="M23.8773 10.9092C23.6949 11.0431 23.4861 11.1366 23.2653 11.183C23.0444 11.2295 22.8168 11.2279 22.598 11.1784C22.3707 11.2973 22.1155 11.3509 21.8611 11.3332C21.6068 11.3155 21.3636 11.2272 21.159 11.0783C20.9544 10.9294 20.7966 10.7258 20.7035 10.4906C20.6104 10.2554 20.5857 9.99802 20.6322 9.74754C20.4842 9.6279 20.3757 9.46672 20.3206 9.28437C20.2655 9.10203 20.2661 8.90671 20.3225 8.72311C20.3789 8.53952 20.4884 8.37589 20.6373 8.25292C20.7862 8.12995 20.9677 8.05317 21.159 8.03227C21.2573 7.65127 21.4996 7.32086 21.8349 7.11045C22.1702 6.90004 22.5725 6.82599 22.9573 6.90386C23.3421 6.98173 23.6794 7.20546 23.8984 7.52806C24.1174 7.85066 24.201 8.24702 24.1317 8.6339C24.1635 8.66922 24.1936 8.70625 24.2219 8.74497C24.4634 9.07343 24.5628 9.48576 24.4982 9.89149C24.4335 10.2972 24.2102 10.6632 23.8773 10.9092V10.9092ZM21.0095 8.66466C20.9211 8.72996 20.8618 8.82714 20.8447 8.93487C20.8275 9.0426 20.8539 9.15208 20.918 9.23929C20.9583 9.29449 21.0122 9.33837 21.0746 9.36678C21.1374 9.39557 21.1869 9.44682 21.2134 9.51052C21.2398 9.57422 21.2413 9.64578 21.2175 9.71123C21.1596 9.86995 21.1529 10.042 21.1983 10.2032C21.2438 10.3644 21.339 10.5066 21.4707 10.6099C21.6023 10.7132 21.7638 10.7723 21.9324 10.7789C22.101 10.7856 22.2682 10.7394 22.4105 10.6469C22.4457 10.624 22.4854 10.6091 22.5268 10.6034C22.5682 10.5976 22.6103 10.6011 22.6499 10.6137C22.8657 10.6818 23.0995 10.6738 23.3124 10.5911C23.5252 10.5085 23.7043 10.3561 23.8196 10.1593C23.935 9.96261 23.9797 9.73346 23.9463 9.51007C23.9129 9.28668 23.8034 9.08256 23.6361 8.93173C23.5974 8.89705 23.5694 8.85209 23.5554 8.80199C23.5414 8.75188 23.5418 8.69865 23.5567 8.64838C23.5954 8.51874 23.6063 8.38284 23.5888 8.24955C23.5712 8.11625 23.5255 7.98855 23.4548 7.87478C23.384 7.761 23.2897 7.6637 23.1781 7.58922C23.0664 7.51475 22.9399 7.46477 22.8068 7.44254C22.6737 7.42031 22.5369 7.42634 22.4055 7.46023C22.274 7.49412 22.1508 7.55511 22.0439 7.63922C21.937 7.72334 21.8487 7.82868 21.7849 7.94839C21.7211 8.0681 21.6832 8.19949 21.6736 8.33398C21.6708 8.37365 21.6594 8.41238 21.6404 8.44756C21.6213 8.48274 21.5949 8.51356 21.5631 8.53795L21.5589 8.54103C21.5273 8.5643 21.4913 8.5808 21.4531 8.58947C21.4149 8.59814 21.3755 8.59879 21.3373 8.59138C21.2809 8.57985 21.2225 8.58042 21.166 8.59306C21.1095 8.60569 21.0562 8.6301 21.0095 8.66466V8.66466Z" fill="#690A3F"/>
<path d="M12.5361 14.8884C12.5035 14.9124 12.4648 14.927 12.4245 14.9303C12.3842 14.9336 12.344 14.9256 12.3084 14.9072C12.2728 14.8888 12.2433 14.8607 12.2232 14.8262C12.2031 14.7916 12.1933 14.752 12.1948 14.7118C12.1977 14.6304 12.279 12.7118 12.9142 11.4936C13.1077 11.1227 13.5637 10.844 14.3063 10.6435C14.8165 10.5057 15.4472 10.4083 16.182 10.3547C16.239 10.3505 16.295 10.369 16.3376 10.4061C16.3803 10.4433 16.4062 10.4959 16.4095 10.5526C16.4129 10.6093 16.3935 10.6653 16.3556 10.7083C16.3176 10.7514 16.2643 10.7779 16.2073 10.7821C14.5954 10.8998 13.534 11.2294 13.2954 11.6868C12.7054 12.8182 12.6256 14.7031 12.625 14.7221C12.6237 14.7545 12.615 14.7863 12.5996 14.8151C12.5842 14.8439 12.5625 14.869 12.5361 14.8884V14.8884Z" fill="#FE5B4A"/>
<path d="M15.337 20.2942C15.3007 20.321 15.2571 20.3359 15.2122 20.3369C15.1674 20.3378 15.1236 20.3249 15.0869 20.2997C14.6709 20.0145 14.2751 19.913 13.9107 19.9982C13.3294 20.134 12.9953 20.7038 12.9919 20.7098C12.9635 20.7595 12.9167 20.7962 12.8616 20.8119C12.8065 20.8276 12.7478 20.821 12.6983 20.7935C12.6488 20.766 12.6125 20.7198 12.5976 20.6653C12.5826 20.6107 12.5901 20.5521 12.6185 20.5024C12.6356 20.4723 13.0457 19.7642 13.8136 19.5825C14.302 19.4666 14.8138 19.589 15.3344 19.9459C15.3624 19.9651 15.3853 19.9907 15.4012 20.0206C15.4171 20.0506 15.4255 20.084 15.4257 20.1181C15.426 20.1521 15.4181 20.1859 15.4026 20.2165C15.3872 20.2472 15.3647 20.2738 15.337 20.2942V20.2942Z" fill="white"/>
<path d="M18.9128 18.8987C18.8765 18.9255 18.8328 18.9404 18.788 18.9413C18.7431 18.9423 18.6993 18.9293 18.6626 18.9041C18.2466 18.6188 17.8509 18.5172 17.4864 18.6026C16.9055 18.7384 16.5711 19.3083 16.5678 19.314C16.5387 19.3621 16.492 19.3973 16.4377 19.4121C16.3834 19.4269 16.3257 19.42 16.277 19.393C16.2283 19.3659 16.1925 19.3209 16.177 19.2674C16.1616 19.214 16.1679 19.1563 16.1945 19.1068C16.2116 19.0767 16.6217 18.3686 17.3894 18.1867C17.8781 18.071 18.3896 18.1932 18.9103 18.5501C18.9334 18.5659 18.9531 18.5862 18.9683 18.6097C18.9834 18.6332 18.9937 18.6596 18.9986 18.6872C19.0034 18.7149 19.0028 18.7433 18.9966 18.7708C18.9904 18.7984 18.9789 18.8245 18.9626 18.8478C18.9488 18.8673 18.932 18.8845 18.9128 18.8987V18.8987Z" fill="white"/>
</g>
<defs>
<clipPath id="clip0_412_63307">
<rect width="24.1588" height="23.7918" fill="white" transform="translate(0.394043 14.9755) rotate(-36.39)"/>
</clipPath>
</defs>
</svg>
